<svg width="600" height="400"><g transform="translate(60,30)"><g class="x-axis" transform="translate(0,320)" fill="none" font-size="10" font-family="sans-serif" text-anchor="middle"><path class="domain" stroke="currentColor" d="M0.5,6V0.5H460.5V6"></path><g class="tick" opacity="1" transform="translate(61.707317073170735,0)"><line stroke="currentColor" y2="6"></line><text fill="currentColor" y="9" dy="0.71em">Q1</text></g><g class="tick" opacity="1" transform="translate(173.90243902439025,0)"><line stroke="currentColor" y2="6"></line><text fill="currentColor" y="9" dy="0.71em">Q2</text></g><g class="tick" opacity="1" transform="translate(286.0975609756098,0)"><line stroke="currentColor" y2="6"></line><text fill="currentColor" y="9" dy="0.71em">Q3</text></g><g class="tick" opacity="1" transform="translate(398.29268292682934,0)"><line stroke="currentColor" y2="6"></line><text fill="currentColor" y="9" dy="0.71em">Q4</text></g></g><g class="y-axis" fill="none" font-size="10" font-family="sans-serif" text-anchor="end"><path class="domain" stroke="currentColor" d="M-6,320.5H0.5V0.5H-6"></path><g class="tick" opacity="1" transform="translate(0,320.5)"><line stroke="currentColor" x2="-6"></line><text fill="currentColor" x="-9" dy="0.32em">0</text></g><g class="tick" opacity="1" transform="translate(0,280.5)"><line stroke="currentColor" x2="-6"></line><text fill="currentColor" x="-9" dy="0.32em">200</text></g><g class="tick" opacity="1" transform="translate(0,240.5)"><line stroke="currentColor" x2="-6"></line><text fill="currentColor" x="-9" dy="0.32em">400</text></g><g class="tick" opacity="1" transform="translate(0,200.5)"><line stroke="currentColor" x2="-6"></line><text fill="currentColor" x="-9" dy="0.32em">600</text></g><g class="tick" opacity="1" transform="translate(0,160.5)"><line stroke="currentColor" x2="-6"></line><text fill="currentColor" x="-9" dy="0.32em">800</text></g><g class="tick" opacity="1" transform="translate(0,120.5)"><line stroke="currentColor" x2="-6"></line><text fill="currentColor" x="-9" dy="0.32em">1,000</text></g><g class="tick" opacity="1" transform="translate(0,80.5)"><line stroke="currentColor" x2="-6"></line><text fill="currentColor" x="-9" dy="0.32em">1,200</text></g><g class="tick" opacity="1" transform="translate(0,40.5)"><line stroke="currentColor" x2="-6"></line><text fill="currentColor" x="-9" dy="0.32em">1,400</text></g><g class="tick" opacity="1" transform="translate(0,0.5)"><line stroke="currentColor" x2="-6"></line><text fill="currentColor" x="-9" dy="0.32em">1,600</text></g></g><g class="category" transform="translate(11.21951219512195,0)"><rect class="sales-bar" x="2.462819750148718" width="46.793575252825704" y="80" height="240" fill="#2E86AB"></rect><rect class="costs-bar" x="51.71921475312315" width="46.793575252825704" y="160" height="160" fill="#A23B72"></rect></g><g class="category" transform="translate(123.41463414634147,0)"><rect class="sales-bar" x="2.462819750148718" width="46.793575252825704" y="40" height="280" fill="#2E86AB"></rect><rect class="costs-bar" x="51.71921475312315" width="46.793575252825704" y="140" height="180" fill="#A23B72"></rect></g><g class="category" transform="translate(235.609756097561,0)"><rect class="sales-bar" x="2.462819750148718" width="46.793575252825704" y="100" height="220" fill="#2E86AB"></rect><rect class="costs-bar" x="51.71921475312315" width="46.793575252825704" y="170" height="150" fill="#A23B72"></rect></g><g class="category" transform="translate(347.80487804878055,0)"><rect class="sales-bar" x="2.462819750148718" width="46.793575252825704" y="0" height="320" fill="#2E86AB"></rect><rect class="costs-bar" x="51.71921475312315" width="46.793575252825704" y="120" height="200" fill="#A23B72"></rect></g></g><text x="300" y="20" text-anchor="middle" font-family="Arial, sans-serif" font-size="16px" font-weight="bold" fill="#333">Real D3.js Features Demo</text></svg>