<svg class="plot-d6a7b5" fill="currentColor" font-family="system-ui, sans-serif" font-size="10" text-anchor="middle" width="600" height="300" viewBox="0 0 600 300"><style>:where(.plot-d6a7b5) {
  --plot-background: white;
  display: block;
  height: auto;
  height: intrinsic;
  max-width: 100%;
}
:where(.plot-d6a7b5 text),
:where(.plot-d6a7b5 tspan) {
  white-space: pre;
}</style><g aria-label="fx-axis tick label" transform="translate(0.5,-8.5)"><g transform="translate(1,0)"><text transform="translate(175,30)">large</text></g><g transform="translate(279,0)"><text transform="translate(175,30)">small</text></g></g><g aria-label="fx-axis label" transform="translate(0.5,-26.5)"><text y="0.71em" transform="translate(315,30)">type</text></g><g aria-label="y-axis tick" aria-hidden="true" transform="translate(0,0.5)"><g fill="none" stroke="currentColor" transform="translate(1,0)"><path transform="translate(50,270)" d="M0,0L-6,0"></path><path transform="translate(50,222)" d="M0,0L-6,0"></path><path transform="translate(50,174)" d="M0,0L-6,0"></path><path transform="translate(50,126)" d="M0,0L-6,0"></path><path transform="translate(50,77.99999999999999)" d="M0,0L-6,0"></path><path transform="translate(50,30)" d="M0,0L-6,0"></path></g></g><g aria-label="y-axis tick label" transform="translate(-8.5,0.5)"><g text-anchor="end" font-variant="tabular-nums" transform="translate(1,0)"><text y="0.32em" transform="translate(50,270)">1</text><text y="0.32em" transform="translate(50,222)">2</text><text y="0.32em" transform="translate(50,174)">3</text><text y="0.32em" transform="translate(50,126)">4</text><text y="0.32em" transform="translate(50,77.99999999999999)">5</text><text y="0.32em" transform="translate(50,30)">6</text></g></g><g aria-label="y-axis label" text-anchor="start" transform="translate(-46.5,-26.5)"><text y="0.71em" transform="translate(51,30)">↑ y</text></g><g aria-label="x-axis tick" aria-hidden="true" transform="translate(0.5,0)"><g fill="none" stroke="currentColor" transform="translate(1,0)"><path transform="translate(100,270)" d="M0,0L0,6"></path><path transform="translate(200,270)" d="M0,0L0,6"></path><path transform="translate(300,270)" d="M0,0L0,6"></path></g><g fill="none" stroke="currentColor" transform="translate(279,0)"><path transform="translate(100,270)" d="M0,0L0,6"></path><path transform="translate(200,270)" d="M0,0L0,6"></path><path transform="translate(300,270)" d="M0,0L0,6"></path></g></g><g aria-label="x-axis tick label" transform="translate(0.5,9.5)"><g font-variant="tabular-nums" transform="translate(1,0)"><text y="0.71em" transform="translate(100,270)">2</text><text y="0.71em" transform="translate(200,270)">4</text><text y="0.71em" transform="translate(300,270)">6</text></g><g font-variant="tabular-nums" transform="translate(279,0)"><text y="0.71em" transform="translate(100,270)">2</text><text y="0.71em" transform="translate(200,270)">4</text><text y="0.71em" transform="translate(300,270)">6</text></g></g><g aria-label="x-axis label" text-anchor="end" transform="translate(17.5,27.5)"><text transform="translate(579,270)">x →</text></g><g aria-label="dot" transform="translate(0.5,0.5)"><g transform="translate(1,0)"><circle cx="150" cy="174" r="3" fill="#4269d0"></circle><circle cx="200" cy="77.99999999999999" r="3" fill="#efb118"></circle><circle cx="300" cy="30" r="3" fill="#efb118"></circle></g><g transform="translate(279,0)"><circle cx="50" cy="222" r="3" fill="#4269d0"></circle><circle cx="100" cy="126" r="3" fill="#efb118"></circle><circle cx="250" cy="270" r="3" fill="#4269d0"></circle></g></g></svg>