<svg class="plot-d6a7b5" fill="currentColor" font-family="system-ui, sans-serif" font-size="10" text-anchor="middle" width="500" height="300" viewBox="0 0 500 300"><style>:where(.plot-d6a7b5) {
  --plot-background: white;
  display: block;
  height: auto;
  height: intrinsic;
  max-width: 100%;
}
:where(.plot-d6a7b5 text),
:where(.plot-d6a7b5 tspan) {
  white-space: pre;
}</style><g aria-label="y-axis tick" aria-hidden="true" fill="none" stroke="currentColor" transform="translate(0,0.5)"><path transform="translate(50,270)" d="M0,0L-6,0"></path><path transform="translate(50,242.22222222222223)" d="M0,0L-6,0"></path><path transform="translate(50,214.44444444444446)" d="M0,0L-6,0"></path><path transform="translate(50,186.66666666666669)" d="M0,0L-6,0"></path><path transform="translate(50,158.88888888888889)" d="M0,0L-6,0"></path><path transform="translate(50,131.11111111111111)" d="M0,0L-6,0"></path><path transform="translate(50,103.33333333333334)" d="M0,0L-6,0"></path><path transform="translate(50,75.55555555555556)" d="M0,0L-6,0"></path><path transform="translate(50,47.77777777777779)" d="M0,0L-6,0"></path><path transform="translate(50,20)" d="M0,0L-6,0"></path></g><g aria-label="y-axis tick label" text-anchor="end" font-variant="tabular-nums" transform="translate(-8.5,0.5)"><text y="0.32em" transform="translate(50,270)">0</text><text y="0.32em" transform="translate(50,242.22222222222223)">1</text><text y="0.32em" transform="translate(50,214.44444444444446)">2</text><text y="0.32em" transform="translate(50,186.66666666666669)">3</text><text y="0.32em" transform="translate(50,158.88888888888889)">4</text><text y="0.32em" transform="translate(50,131.11111111111111)">5</text><text y="0.32em" transform="translate(50,103.33333333333334)">6</text><text y="0.32em" transform="translate(50,75.55555555555556)">7</text><text y="0.32em" transform="translate(50,47.77777777777779)">8</text><text y="0.32em" transform="translate(50,20)">9</text></g><g aria-label="y-axis label" text-anchor="start" transform="translate(-46.5,-16.5)"><text y="0.71em" transform="translate(50,20)">↑ y</text></g><g aria-label="x-axis tick" aria-hidden="true" fill="none" stroke="currentColor" transform="translate(0.5,0)"><path transform="translate(50,270)" d="M0,0L0,6"></path><path transform="translate(111.42857142857143,270)" d="M0,0L0,6"></path><path transform="translate(172.85714285714286,270)" d="M0,0L0,6"></path><path transform="translate(234.28571428571428,270)" d="M0,0L0,6"></path><path transform="translate(295.7142857142857,270)" d="M0,0L0,6"></path><path transform="translate(357.14285714285717,270)" d="M0,0L0,6"></path><path transform="translate(418.57142857142856,270)" d="M0,0L0,6"></path><path transform="translate(480,270)" d="M0,0L0,6"></path></g><g aria-label="x-axis tick label" font-variant="tabular-nums" transform="translate(0.5,9.5)"><text y="0.71em" transform="translate(50,270)">1</text><text y="0.71em" transform="translate(111.42857142857143,270)">2</text><text y="0.71em" transform="translate(172.85714285714286,270)">3</text><text y="0.71em" transform="translate(234.28571428571428,270)">4</text><text y="0.71em" transform="translate(295.7142857142857,270)">5</text><text y="0.71em" transform="translate(357.14285714285717,270)">6</text><text y="0.71em" transform="translate(418.57142857142856,270)">7</text><text y="0.71em" transform="translate(480,270)">8</text></g><g aria-label="x-axis label" text-anchor="end" transform="translate(17.5,27.5)"><text transform="translate(480,270)">x →</text></g><g aria-label="area"><path d="M50,214.444L111.429,158.889L172.857,186.667L234.286,131.111L295.714,158.889L357.143,75.556L418.571,103.333L480,20L480,270L418.571,270L357.143,270L295.714,270L234.286,270L172.857,270L111.429,270L50,270Z"></path></g></svg>