<svg class="plot-d6a7b5" fill="currentColor" font-family="system-ui, sans-serif" font-size="10" text-anchor="middle" width="500" height="300" viewBox="0 0 500 300"><style>:where(.plot-d6a7b5) {
  --plot-background: white;
  display: block;
  height: auto;
  height: intrinsic;
  max-width: 100%;
}
:where(.plot-d6a7b5 text),
:where(.plot-d6a7b5 tspan) {
  white-space: pre;
}</style><g aria-label="y-axis tick" aria-hidden="true" fill="none" stroke="currentColor" transform="translate(0,0.5)"><path transform="translate(50,270)" d="M0,0L-6,0"></path><path transform="translate(50,228.33333333333334)" d="M0,0L-6,0"></path><path transform="translate(50,186.66666666666669)" d="M0,0L-6,0"></path><path transform="translate(50,145)" d="M0,0L-6,0"></path><path transform="translate(50,103.33333333333334)" d="M0,0L-6,0"></path><path transform="translate(50,61.66666666666666)" d="M0,0L-6,0"></path><path transform="translate(50,20)" d="M0,0L-6,0"></path></g><g aria-label="y-axis tick label" text-anchor="end" font-variant="tabular-nums" transform="translate(-8.5,0.5)"><text y="0.32em" transform="translate(50,270)">2.0</text><text y="0.32em" transform="translate(50,228.33333333333334)">2.5</text><text y="0.32em" transform="translate(50,186.66666666666669)">3.0</text><text y="0.32em" transform="translate(50,145)">3.5</text><text y="0.32em" transform="translate(50,103.33333333333334)">4.0</text><text y="0.32em" transform="translate(50,61.66666666666666)">4.5</text><text y="0.32em" transform="translate(50,20)">5.0</text></g><g aria-label="y-axis label" text-anchor="start" transform="translate(-46.5,-16.5)"><text y="0.71em" transform="translate(50,20)">↑ y</text></g><g aria-label="x-axis tick" aria-hidden="true" fill="none" stroke="currentColor" transform="translate(0.5,0)"><path transform="translate(50,270)" d="M0,0L0,6"></path><path transform="translate(121.66666666666667,270)" d="M0,0L0,6"></path><path transform="translate(193.33333333333334,270)" d="M0,0L0,6"></path><path transform="translate(265,270)" d="M0,0L0,6"></path><path transform="translate(336.6666666666667,270)" d="M0,0L0,6"></path><path transform="translate(408.3333333333333,270)" d="M0,0L0,6"></path><path transform="translate(480,270)" d="M0,0L0,6"></path></g><g aria-label="x-axis tick label" font-variant="tabular-nums" transform="translate(0.5,9.5)"><text y="0.71em" transform="translate(50,270)">1.0</text><text y="0.71em" transform="translate(121.66666666666667,270)">1.5</text><text y="0.71em" transform="translate(193.33333333333334,270)">2.0</text><text y="0.71em" transform="translate(265,270)">2.5</text><text y="0.71em" transform="translate(336.6666666666667,270)">3.0</text><text y="0.71em" transform="translate(408.3333333333333,270)">3.5</text><text y="0.71em" transform="translate(480,270)">4.0</text></g><g aria-label="x-axis label" text-anchor="end" transform="translate(17.5,27.5)"><text transform="translate(480,270)">x →</text></g><rect aria-label="frame" fill="none" stroke="currentColor" transform="translate(0.5,0.5)" x="50" y="20" width="430" height="250"></rect><g aria-label="dot" transform="translate(0.5,0.5)"><circle cx="50" cy="270" r="5" fill="#4269d0"></circle><circle cx="193.33333333333334" cy="103.33333333333334" r="5" fill="#efb118"></circle><circle cx="336.6666666666667" cy="186.66666666666669" r="5" fill="#4269d0"></circle><circle cx="480" cy="20" r="5" fill="#efb118"></circle></g></svg>