<svg class="plot-d6a7b5" fill="currentColor" font-family="system-ui, sans-serif" font-size="10" text-anchor="middle" width="500" height="300" viewBox="0 0 500 300"><style>:where(.plot-d6a7b5) {
  --plot-background: white;
  display: block;
  height: auto;
  height: intrinsic;
  max-width: 100%;
}
:where(.plot-d6a7b5 text),
:where(.plot-d6a7b5 tspan) {
  white-space: pre;
}</style><g aria-label="y-axis tick" aria-hidden="true" fill="none" stroke="currentColor" transform="translate(0,0.5)"><path transform="translate(50,270)" d="M0,0L-6,0"></path><path transform="translate(50,234.2857142857143)" d="M0,0L-6,0"></path><path transform="translate(50,198.57142857142858)" d="M0,0L-6,0"></path><path transform="translate(50,162.85714285714286)" d="M0,0L-6,0"></path><path transform="translate(50,127.14285714285715)" d="M0,0L-6,0"></path><path transform="translate(50,91.42857142857143)" d="M0,0L-6,0"></path><path transform="translate(50,55.71428571428572)" d="M0,0L-6,0"></path><path transform="translate(50,20)" d="M0,0L-6,0"></path></g><g aria-label="y-axis tick label" text-anchor="end" font-variant="tabular-nums" transform="translate(-8.5,0.5)"><text y="0.32em" transform="translate(50,270)">2</text><text y="0.32em" transform="translate(50,234.2857142857143)">3</text><text y="0.32em" transform="translate(50,198.57142857142858)">4</text><text y="0.32em" transform="translate(50,162.85714285714286)">5</text><text y="0.32em" transform="translate(50,127.14285714285715)">6</text><text y="0.32em" transform="translate(50,91.42857142857143)">7</text><text y="0.32em" transform="translate(50,55.71428571428572)">8</text><text y="0.32em" transform="translate(50,20)">9</text></g><g aria-label="y-axis label" text-anchor="start" transform="translate(-46.5,-16.5)"><text y="0.71em" transform="translate(50,20)">↑ y</text></g><g aria-label="x-axis tick" aria-hidden="true" fill="none" stroke="currentColor" transform="translate(0.5,0)"><path transform="translate(50,270)" d="M0,0L0,6"></path><path transform="translate(111.42857142857143,270)" d="M0,0L0,6"></path><path transform="translate(172.85714285714286,270)" d="M0,0L0,6"></path><path transform="translate(234.28571428571428,270)" d="M0,0L0,6"></path><path transform="translate(295.7142857142857,270)" d="M0,0L0,6"></path><path transform="translate(357.14285714285717,270)" d="M0,0L0,6"></path><path transform="translate(418.57142857142856,270)" d="M0,0L0,6"></path><path transform="translate(480,270)" d="M0,0L0,6"></path></g><g aria-label="x-axis tick label" font-variant="tabular-nums" transform="translate(0.5,9.5)"><text y="0.71em" transform="translate(50,270)">1</text><text y="0.71em" transform="translate(111.42857142857143,270)">2</text><text y="0.71em" transform="translate(172.85714285714286,270)">3</text><text y="0.71em" transform="translate(234.28571428571428,270)">4</text><text y="0.71em" transform="translate(295.7142857142857,270)">5</text><text y="0.71em" transform="translate(357.14285714285717,270)">6</text><text y="0.71em" transform="translate(418.57142857142856,270)">7</text><text y="0.71em" transform="translate(480,270)">8</text></g><g aria-label="x-axis label" text-anchor="end" transform="translate(17.5,27.5)"><text transform="translate(480,270)">x →</text></g><g aria-label="line" fill="none" stroke="currentColor" stroke-width="1.5" stroke-linejoin="round" stroke-linecap="round" transform="translate(0.5,0.5)"><path d="M50,270L111.429,198.571L172.857,234.286L234.286,162.857L295.714,198.571L357.143,91.429L418.571,127.143L480,20"></path></g></svg>