<svg class="plot-d6a7b5" fill="currentColor" font-family="system-ui, sans-serif" font-size="10" text-anchor="middle" width="500" height="300" viewBox="0 0 500 300"><style>:where(.plot-d6a7b5) {
  --plot-background: white;
  display: block;
  height: auto;
  height: intrinsic;
  max-width: 100%;
}
:where(.plot-d6a7b5 text),
:where(.plot-d6a7b5 tspan) {
  white-space: pre;
}</style><g aria-label="y-axis tick" aria-hidden="true" fill="none" stroke="currentColor" transform="translate(0,0.5)"><path transform="translate(50,270)" d="M0,0L-6,0"></path><path transform="translate(50,242.5274725274725)" d="M0,0L-6,0"></path><path transform="translate(50,215.05494505494508)" d="M0,0L-6,0"></path><path transform="translate(50,187.5824175824176)" d="M0,0L-6,0"></path><path transform="translate(50,160.1098901098901)" d="M0,0L-6,0"></path><path transform="translate(50,132.63736263736263)" d="M0,0L-6,0"></path><path transform="translate(50,105.16483516483517)" d="M0,0L-6,0"></path><path transform="translate(50,77.69230769230768)" d="M0,0L-6,0"></path><path transform="translate(50,50.219780219780226)" d="M0,0L-6,0"></path><path transform="translate(50,22.747252747252737)" d="M0,0L-6,0"></path></g><g aria-label="y-axis tick label" text-anchor="end" font-variant="tabular-nums" transform="translate(-8.5,0.5)"><text y="0.32em" transform="translate(50,270)">0</text><text y="0.32em" transform="translate(50,242.5274725274725)">10</text><text y="0.32em" transform="translate(50,215.05494505494508)">20</text><text y="0.32em" transform="translate(50,187.5824175824176)">30</text><text y="0.32em" transform="translate(50,160.1098901098901)">40</text><text y="0.32em" transform="translate(50,132.63736263736263)">50</text><text y="0.32em" transform="translate(50,105.16483516483517)">60</text><text y="0.32em" transform="translate(50,77.69230769230768)">70</text><text y="0.32em" transform="translate(50,50.219780219780226)">80</text><text y="0.32em" transform="translate(50,22.747252747252737)">90</text></g><g aria-label="y-axis label" text-anchor="start" transform="translate(-46.5,-16.5)"><text y="0.71em" transform="translate(50,20)">↑ value</text></g><g aria-label="x-axis tick" aria-hidden="true" fill="none" stroke="currentColor" transform="translate(32,0)"><path transform="translate(59,270)" d="M0,0L0,6"></path><path transform="translate(129,270)" d="M0,0L0,6"></path><path transform="translate(199,270)" d="M0,0L0,6"></path><path transform="translate(269,270)" d="M0,0L0,6"></path><path transform="translate(339,270)" d="M0,0L0,6"></path><path transform="translate(409,270)" d="M0,0L0,6"></path></g><g aria-label="x-axis tick label" transform="translate(32,9.5)"><text y="0.71em" transform="translate(59,270)">A</text><text y="0.71em" transform="translate(129,270)">B</text><text y="0.71em" transform="translate(199,270)">C</text><text y="0.71em" transform="translate(269,270)">D</text><text y="0.71em" transform="translate(339,270)">E</text><text y="0.71em" transform="translate(409,270)">F</text></g><g aria-label="x-axis label" transform="translate(0.5,27.5)"><text transform="translate(265,270)">name</text></g><g aria-label="bar"><rect x="59" width="63" y="193.07692307692307" height="76.92307692307693"></rect><rect x="129" width="63" y="118.9010989010989" height="151.09890109890108"></rect><rect x="199" width="63" y="151.86813186813188" height="118.13186813186812"></rect><rect x="269" width="63" y="20" height="250"></rect><rect x="339" width="63" y="47.47252747252749" height="222.52747252747253"></rect><rect x="409" width="63" y="124.39560439560438" height="145.60439560439562"></rect></g></svg>