<svg class="plot-d6a7b5" fill="currentColor" font-family="system-ui, sans-serif" font-size="10" text-anchor="middle" width="500" height="300" viewBox="0 0 500 300"><style>:where(.plot-d6a7b5) {
  --plot-background: white;
  display: block;
  height: auto;
  height: intrinsic;
  max-width: 100%;
}
:where(.plot-d6a7b5 text),
:where(.plot-d6a7b5 tspan) {
  white-space: pre;
}</style><g aria-label="y-axis tick" aria-hidden="true" fill="none" stroke="currentColor" transform="translate(0,0.5)"><path transform="translate(50,270)" d="M0,0L-6,0"></path><path transform="translate(50,238.75)" d="M0,0L-6,0"></path><path transform="translate(50,207.5)" d="M0,0L-6,0"></path><path transform="translate(50,176.25)" d="M0,0L-6,0"></path><path transform="translate(50,145)" d="M0,0L-6,0"></path><path transform="translate(50,113.75)" d="M0,0L-6,0"></path><path transform="translate(50,82.5)" d="M0,0L-6,0"></path><path transform="translate(50,51.25)" d="M0,0L-6,0"></path><path transform="translate(50,20)" d="M0,0L-6,0"></path></g><g aria-label="y-axis tick label" text-anchor="end" font-variant="tabular-nums" transform="translate(-8.5,0.5)"><text y="0.32em" transform="translate(50,270)">0.0</text><text y="0.32em" transform="translate(50,238.75)">0.5</text><text y="0.32em" transform="translate(50,207.5)">1.0</text><text y="0.32em" transform="translate(50,176.25)">1.5</text><text y="0.32em" transform="translate(50,145)">2.0</text><text y="0.32em" transform="translate(50,113.75)">2.5</text><text y="0.32em" transform="translate(50,82.5)">3.0</text><text y="0.32em" transform="translate(50,51.25)">3.5</text><text y="0.32em" transform="translate(50,20)">4.0</text></g><g aria-label="y-axis label" text-anchor="start" transform="translate(-46.5,-16.5)"><text y="0.71em" transform="translate(50,20)">↑ Frequency</text></g><g aria-label="x-axis tick" aria-hidden="true" fill="none" stroke="currentColor" transform="translate(0.5,0)"><path transform="translate(50,270)" d="M0,0L0,6"></path><path transform="translate(121.66666666666667,270)" d="M0,0L0,6"></path><path transform="translate(193.33333333333334,270)" d="M0,0L0,6"></path><path transform="translate(265,270)" d="M0,0L0,6"></path><path transform="translate(336.6666666666667,270)" d="M0,0L0,6"></path><path transform="translate(408.3333333333333,270)" d="M0,0L0,6"></path><path transform="translate(480,270)" d="M0,0L0,6"></path></g><g aria-label="x-axis tick label" font-variant="tabular-nums" transform="translate(0.5,9.5)"><text y="0.71em" transform="translate(50,270)">1.0</text><text y="0.71em" transform="translate(121.66666666666667,270)">1.5</text><text y="0.71em" transform="translate(193.33333333333334,270)">2.0</text><text y="0.71em" transform="translate(265,270)">2.5</text><text y="0.71em" transform="translate(336.6666666666667,270)">3.0</text><text y="0.71em" transform="translate(408.3333333333333,270)">3.5</text><text y="0.71em" transform="translate(480,270)">4.0</text></g><g aria-label="x-axis label" text-anchor="end" transform="translate(17.5,27.5)"><text transform="translate(480,270)">value →</text></g><g aria-label="rect"><rect x="51" y="20" width="142.33333333333334" height="250"></rect><rect x="194.33333333333334" y="20" width="142.33333333333334" height="250"></rect><rect x="337.6666666666667" y="145" width="142.33333333333331" height="125"></rect></g></svg>